<?xml version="1.0" encoding="UTF-8" standalone="no"?>
<svg width="541px" height="208px" viewBox="0 0 541 208" version="1.1" xmlns="http://www.w3.org/2000/svg" xmlns:xlink="http://www.w3.org/1999/xlink" xmlns:sketch="http://www.bohemiancoding.com/sketch/ns">
    <!-- Generator: Sketch 3.5.2 (25235) - http://www.bohemiancoding.com/sketch -->
    <title>logo</title>
    <desc>Created with Sketch.</desc>
    <defs></defs>
    <g id="Page-1" stroke="none" stroke-width="1" fill="none" fill-rule="evenodd" sketch:type="MSPage">
        <g id="logo" sketch:type="MSLayerGroup" transform="translate(-96.000000, -3.000000)">
            <g id="g10" transform="translate(366.000000, 457.020000) scale(1, -1) translate(-366.000000, -457.020000) translate(0.000000, 0.520000)">
                <g id="g14" transform="translate(95.000000, 92.000000)">
                    <g id="g16-Clipped">
                        <g id="g16" transform="translate(0.666664, 0.333330)">
                            <g id="g22" transform="translate(0.091733, 611.380783)"></g>
                            <g id="g26" transform="translate(74.569598, 676.070916)"></g>
                            <g id="g30" transform="translate(156.685596, 676.070916)"></g>
                            <g id="g34" transform="translate(238.636661, 677.497983)"></g>
                            <g id="g46" transform="translate(368.106791, 675.447850)"></g>
                            <g id="g50" transform="translate(292.395859, 675.833316)"></g>
                        </g>
                    </g>
                </g>
                <g id="main" transform="translate(95.758397, 703.714113)" sketch:type="MSShapeGroup">
                    <path d="M14.6666663,119.999999 L14.6666663,86.8599994 L17.6639996,83.9399995 L20.9546661,81.7493329 C23.6853327,80.3386663 26.8519993,79.6346663 30.4626659,79.6346663 C36.7493324,79.6346663 42.1506656,82.0173329 46.6599988,86.7879994 C51.1693321,91.5559993 53.4239987,97.1026658 53.4239987,103.427999 C53.4239987,109.707999 51.1813321,115.239999 46.6959988,120.034665 C42.2106656,124.827998 36.7999991,127.223998 30.4626659,127.223998 C28.7546659,127.223998 27.194666,127.078665 25.7799994,126.787998 C24.3679994,126.494665 22.9786661,126.007998 21.6119995,125.327998 C19.1719995,124.110665 16.8586662,122.334665 14.6666663,119.999999 L14.6666663,119.999999 Z M14.6666663,138.247998 L17.2933329,139.558665 L21.0893328,141.091998 C23.8119994,141.775998 26.926666,142.117331 30.4319992,142.117331 C40.3586657,142.117331 49.0559988,138.405331 56.5266653,130.982665 C63.9959984,123.561332 67.7319983,114.375999 67.7319983,103.427999 C67.7319983,92.4319993 64.0693317,83.2346662 56.7453319,75.8399997 C49.4213321,68.4399999 40.6506657,64.744 30.4319992,64.744 C24.2999994,64.744 18.4719995,66.2759999 12.9506663,69.3413332 C7.42533315,72.4079998 3.22799992,76.325333 0.359999991,81.0919996 L0.359999991,155.546664 L14.6666663,170.435997 L14.6666663,138.247998 Z" id="path24" fill="#405C98"></path>
                    <path d="M134.811197,103.356799 C134.811197,109.972799 132.57253,115.607465 128.09653,120.252799 C123.617864,124.900798 118.26453,127.224798 112.035197,127.224798 C105.805864,127.224798 100.441864,124.878132 95.9431976,120.182132 C91.440531,115.487465 89.1911978,109.878132 89.1911978,103.356799 C89.1911978,96.9821325 91.3791977,91.435466 95.7605309,86.7154661 C100.139197,81.9941329 105.564531,79.6341329 112.035197,79.6341329 C118.26453,79.6341329 123.617864,81.9807996 128.09653,86.6767994 C132.57253,91.371466 134.811197,96.9327992 134.811197,103.356799 M112.035197,142.116798 C122.011197,142.116798 130.72453,138.295465 138.16853,130.655465 C141.865863,126.859465 144.639196,122.699465 146.489863,118.175465 C148.337863,113.648799 149.263196,108.707466 149.263196,103.356799 C149.263196,92.8927993 145.613863,83.8421328 138.315197,76.202133 C131.013863,68.5621332 122.255197,64.7434666 112.035197,64.7434666 C101.817864,64.7434666 93.0458643,68.5127999 85.7231979,76.058133 C78.3978647,83.5994662 74.7391981,92.6967993 74.7391981,103.356799 C74.7391981,113.770132 78.387198,122.832799 85.6858645,130.548798 C92.9871977,138.258131 101.767197,142.116798 112.035197,142.116798" id="path28" fill="#405C98"></path>
                    <path d="M216.927195,103.356799 C216.927195,109.972799 214.685861,115.607465 210.209861,120.252799 C205.732528,124.900798 200.380528,127.224798 194.152528,127.224798 C187.921862,127.224798 182.556529,124.878132 178.057862,120.182132 C173.555196,115.487465 171.307196,109.878132 171.307196,103.356799 C171.307196,96.9821325 173.493862,91.435466 177.875196,86.7154661 C182.255195,81.9941329 187.677862,79.6341329 194.152528,79.6341329 C200.380528,79.6341329 205.732528,81.9807996 210.209861,86.6767994 C214.685861,91.371466 216.927195,96.9327992 216.927195,103.356799 M194.152528,142.116798 C204.127195,142.116798 212.839195,138.295465 220.283194,130.655465 C223.980528,126.859465 226.755194,122.699465 228.603194,118.175465 C230.452528,113.648799 231.377861,108.707466 231.377861,103.356799 C231.377861,92.8927993 227.729861,83.8421328 220.429861,76.202133 C213.131195,68.5621332 204.372528,64.7434666 194.152528,64.7434666 C183.932529,64.7434666 175.160529,68.5127999 167.839196,76.058133 C160.513863,83.5994662 156.852529,92.6967993 156.852529,103.356799 C156.852529,113.770132 160.503196,122.832799 167.803196,130.548798 C175.099196,138.258131 183.884529,142.116798 194.152528,142.116798" id="path32" fill="#405C98"></path>
                    <path d="M301.544926,142.117198 L281.699593,142.117198 L252.879594,112.141199 L252.879594,170.435864 L238.572927,155.546531 L238.572927,66.2025333 L252.879594,66.2025333 L252.879594,94.7331992 L280.31426,66.2025333 L300.159592,66.2025333 L264.355593,103.437199 L301.544926,142.117198 Z" id="path36" fill="#405C98"></path>
                    <path d="M391.886924,0.481868255 L388.766924,0.481868255 L388.766924,207.117863 L391.886924,207.117863 L391.886924,0.481868255 Z" id="path38" fill="#606163"></path>
                    <path d="M485.458921,0.481868255 L482.337588,0.481868255 L482.337588,207.117863 L485.458921,207.117863 L485.458921,0.481868255 Z" id="path40" fill="#606163"></path>
                    <path d="M333.794925,58.5738668 L540.432253,58.5738668 L540.432253,55.4565335 L333.794925,55.4565335 L333.794925,58.5738668 Z" id="path42" fill="#606163"></path>
                    <path d="M333.794925,152.145864 L540.432253,152.145864 L540.432253,149.028531 L333.794925,149.028531 L333.794925,152.145864 Z" id="path44" fill="#606163"></path>
                    <path d="M430.681723,76.0670664 C417.335056,76.0670664 405.689723,82.6110662 405.689723,97.0017325 C405.689723,117.541732 421.871056,126.660398 422.460389,127.252398 C423.048389,127.837732 422.919056,129.233732 422.919056,129.233732 C422.919056,129.233732 428.949723,129.976398 433.692389,129.976398 C440.889722,129.976398 464.113722,126.992398 464.113722,106.751066 C464.113722,83.3310662 440.627056,76.0670664 430.681723,76.0670664 M438.793722,141.359065 C418.645723,141.359065 388.027057,130.891065 368.400391,111.265732 C368.400391,111.265732 367.832391,110.740399 368.400391,110.175066 C369.696391,108.877732 398.49239,126.311065 412.36439,126.311065 C412.36439,126.311065 397.70839,111.003065 397.70839,94.7817326 C397.70839,78.5563996 410.26839,64.1630667 429.895056,64.1630667 C449.523055,64.1630667 476.477721,77.7710663 476.477721,106.292399 C476.477721,134.817732 450.309722,141.359065 438.793722,141.359065" id="path48" fill="#F16039"></path>
                    <path d="M309.637459,113.785865 C310.733459,116.072532 312.200126,118.213865 314.086792,120.180532 C318.585459,124.877865 323.950792,127.225865 330.182792,127.225865 C336.410792,127.225865 341.764125,124.900532 346.238791,120.251199 C348.141458,118.279199 349.613458,116.119199 350.708125,113.785865 L309.637459,113.785865 Z M367.153457,98.8925325 C367.306791,100.355199 367.408124,101.836532 367.408124,103.355199 C367.408124,107.032532 366.938791,110.500532 366.066791,113.785865 C365.668124,115.283199 365.213458,116.759199 364.633458,118.175199 C362.785458,122.700532 360.009458,126.859198 356.314791,130.656532 C348.868125,138.293865 340.156125,142.117865 330.182792,142.117865 C319.913459,142.117865 311.128126,138.261865 303.832126,130.548532 C296.532126,122.833865 292.881459,113.769865 292.881459,103.355199 C292.881459,92.6978659 296.540126,83.5951995 303.866792,76.0551997 C311.189459,68.5138666 319.960125,64.7432 330.182792,64.7432 C340.400125,64.7432 349.160125,68.5591999 356.460124,76.200533 C358.312124,78.1418663 359.924124,80.1685329 361.305458,82.2871995 L348.965458,90.0671993 C348.170791,88.8925327 347.272125,87.7551994 346.238791,86.6725328 C341.764125,81.9791996 336.410792,79.6311996 330.182792,79.6311996 C323.708125,79.6311996 318.282792,81.9925329 313.902792,86.7125328 C310.580126,90.2951993 308.522792,94.3565326 307.724126,98.8925325 L352.562791,98.8925325 L367.153457,98.8925325 Z" id="path52" fill="#405C98"></path>
                </g>
            </g>
        </g>
    </g>
</svg>